<svg width="44" height="44" viewBox="0 0 44 44" fill="none" xmlns="http://www.w3.org/2000/svg">
<path d="M5.74468 9.1667C8.0669 10.1445 12.1002 11.2445 15.7669 12.3445C19.1891 13.3223 21.5113 14.5445 21.5113 17.6C21.5113 18.9445 21.3891 23.1 21.2669 27.9889C21.7558 27.8667 22.2447 27.7445 22.7336 27.8667V27.7445C22.7336 22.4889 22.4891 17.9667 22.4891 16.5C22.4891 13.4445 24.6891 13.8111 28.2336 12.8334C29.8225 12.3445 37.0336 10.7556 39.478 10.2667C41.5558 9.90004 40.7002 8.92226 40.0891 8.31115C40.0891 8.43337 39.9669 8.55559 39.6002 8.67781C37.7669 9.28892 26.5225 11.3667 23.8336 12.2223C21.878 12.7111 19.4336 11.7334 16.5002 10.6334C13.5669 9.04448 6.11134 7.33337 4.64468 6.84448C4.40023 6.72226 4.15579 6.60004 3.91134 6.35559C3.78912 6.35559 3.6669 6.47781 3.54468 6.60004C3.6669 6.60004 3.6669 6.60004 3.78912 6.60004C4.40023 6.47781 3.54468 8.31115 5.74468 9.1667Z" fill="#F5F8FA"/>
<path d="M1.22239 13.3222C1.34461 16.5 1.71128 24.3222 1.34461 27.8667C1.10017 30.1889 1.58906 32.0222 2.56684 33.2445C2.81128 32.8778 3.30017 32.5111 4.27795 32.3889C8.92239 31.5333 16.3779 29.4556 19.3113 28.6C20.1668 28.3556 20.7779 28.1111 21.2668 27.9889C21.2668 23.1 21.5113 18.9444 21.5113 17.6C21.5113 14.5444 19.0668 13.3222 15.7668 12.3445C12.1002 11.2445 8.06683 10.1444 5.74461 9.16667C3.54461 8.31112 4.40017 6.47778 3.78906 6.47778C3.66684 6.47778 3.66684 6.47778 3.54461 6.47778C1.58906 7.82223 1.10017 10.3889 1.22239 13.3222Z" fill="#ADD3E0"/>
<path d="M40.5779 33.9778C41.0668 34.1 41.6779 34.3445 42.1668 34.7111C42.6557 33.6111 42.5335 32.1445 42.5335 30.5556C42.4112 27.6222 42.6557 18.2111 42.7779 13.9333C42.9001 10.3889 41.8001 8.67779 40.089 7.94446C40.089 8.06668 40.089 8.06668 40.089 8.1889C40.7001 8.92224 41.5557 9.77779 39.4779 10.1445C37.0335 10.6333 29.8223 12.2222 28.2335 12.7111C24.689 13.6889 22.489 13.3222 22.489 16.3778C22.489 17.8445 22.6112 22.3667 22.7335 27.6222V27.7445C23.3446 27.7445 23.9557 27.9889 24.689 28.3556C26.5223 29.2111 38.1335 33.3667 40.5779 33.9778Z" fill="#C1E1EA"/>
<path d="M16.5003 10.2666C19.4336 11.4888 21.878 12.4666 23.8336 11.8555C26.5225 11.1222 37.7669 8.92218 39.6003 8.31107C39.8447 8.18884 39.9669 8.06662 40.0892 7.9444C39.9669 7.82218 39.8447 7.69995 39.7225 7.57773C39.478 7.45551 39.2336 7.45551 38.9892 7.33329C35.9336 6.72218 28.7225 4.39995 25.6669 3.29995C23.2225 2.4444 20.1669 2.56662 17.6003 3.17773C14.7892 3.78884 8.92249 5.25551 6.11138 5.62218C5.25582 5.7444 4.52249 5.98884 3.91138 6.35551C4.0336 6.47773 4.27804 6.72218 4.64471 6.8444C6.11138 7.33329 13.5669 9.0444 16.5003 10.2666Z" fill="#D2ECF3"/>
<path opacity="0.5" d="M22.7337 27.7444C22.2448 27.7444 21.7559 27.7444 21.267 27.8666V28.4777C21.267 34.2222 21.5115 38.9888 21.3892 39.8444C21.3892 40.3333 21.0226 40.8222 20.5337 41.1888C21.5115 41.3111 22.4892 41.3111 23.467 41.1888C22.8559 40.6999 22.6115 39.9666 22.4892 39.2333C22.4892 38.3777 22.8559 33.6111 22.7337 27.7444Z" fill="#CFE1EA"/>
<path d="M21.5114 39.8445C21.6337 39.1111 21.267 34.2223 21.3892 28.4778V27.8667C20.7781 27.9889 20.167 28.2334 19.4337 28.4778C16.3781 29.4556 8.92254 31.5334 4.40032 32.2667C3.54476 32.3889 2.93365 32.7556 2.68921 33.1223C3.30032 33.9778 4.2781 34.7111 5.3781 35.2C7.94476 36.1778 13.6892 38.2556 17.2337 40.0889C18.3337 40.7 19.5559 40.9445 20.6559 41.0667C21.1448 40.8223 21.3892 40.4556 21.5114 39.8445ZM39.2337 36.6667C40.8225 36.3 41.6781 35.5667 42.167 34.7111C41.6781 34.3445 41.1892 34.1 40.5781 33.9778C38.1337 33.3667 26.4003 29.2111 24.8114 28.4778C23.9559 28.1111 23.3448 27.8667 22.8559 27.8667C22.8559 33.7334 22.6114 38.5 22.7337 39.2334C22.8559 39.9667 23.1003 40.7 23.7114 41.1889C24.3225 41.0667 24.9337 40.9445 25.5448 40.7C27.867 39.7223 35.3225 37.6445 39.2337 36.6667Z" fill="#9BC2D4"/>
<path d="M9.28911 22.8556C4.52245 26.8889 2.81133 34.7112 2.93356 31.1667C3.05578 28.2334 2.93356 19.5556 2.93356 16.0112C2.93356 12.9556 3.42245 10.3889 7.45578 12.2223C10.5113 13.6889 16.2558 14.7889 18.9447 16.6223C20.6558 17.7223 15.8891 17.2334 9.28911 22.8556Z" fill="#C1E1EA"/>
<path d="M36.9113 18.8222C40.0891 21.0222 41.3113 25.6667 41.1891 23.4667C41.0669 21.6333 41.1891 17.4778 41.1891 15.1556C41.1891 13.2 41.4335 11.6111 38.7447 12.4667C36.4224 13.0778 32.5113 13.4445 30.8002 14.6667C29.7002 15.4 32.5113 15.8889 36.9113 18.8222Z" fill="#D2ECF3"/>
<path d="M31.0832 29.7081C30.9252 29.7516 30.845 29.6914 30.8427 29.5275L30.8254 28.2981C30.815 27.5605 30.9487 26.9148 31.2265 26.3611C31.5043 25.8074 31.9159 25.1839 32.4615 24.4906C32.9603 23.8596 33.3333 23.3043 33.5804 22.8249C33.843 22.3247 33.9699 21.755 33.9609 21.1157C33.9505 20.3781 33.7842 19.8397 33.4621 19.5006C33.1398 19.1451 32.7178 19.0391 32.1963 19.1828C31.6273 19.3395 31.1801 19.693 30.8547 20.2434C30.529 20.7774 30.3714 21.4132 30.3818 22.1508L30.3908 22.7901C30.3931 22.954 30.3152 23.0577 30.1572 23.1012L28.354 23.4991C28.196 23.5426 28.1158 23.4824 28.1135 23.3185L28.1059 22.7776C28.0865 21.4007 28.4502 20.1898 29.197 19.1449C29.9595 18.0792 30.965 17.3745 32.2136 17.0306C33.4147 16.6998 34.3846 16.844 35.1232 17.4634C35.8615 18.0664 36.2403 19.0481 36.2594 20.4086C36.2696 21.1298 36.1836 21.7788 36.0013 22.3556C35.819 22.9324 35.5959 23.4217 35.3318 23.8235C35.0835 24.221 34.7568 24.6812 34.3517 25.2042C33.9151 25.7522 33.5963 26.2103 33.3953 26.5783C33.1942 26.9464 33.0968 27.3517 33.103 27.7942L33.1186 28.9007C33.1209 29.0646 33.043 29.1683 32.885 29.2118L31.0832 29.7081ZM32.0795 34.543C31.637 34.6649 31.2714 34.6175 30.9828 34.4008C30.6941 34.1841 30.5466 33.8463 30.5401 33.3873C30.5336 32.9283 30.6706 32.5122 30.9509 32.1388C31.2312 31.7654 31.5927 31.5177 32.0352 31.3958C32.4777 31.274 32.8433 31.3214 33.132 31.5381C33.4206 31.7548 33.5682 32.0926 33.5746 32.5516C33.5811 33.0105 33.4363 33.4289 33.1401 33.8067C32.8598 34.1801 32.5063 34.4255 32.0795 34.543Z" fill="#5A5A5A"/>
</svg>
