<svg width="43" height="44" viewBox="0 0 43 44" fill="none" xmlns="http://www.w3.org/2000/svg">
<g clip-path="url(#clip0_2189_11522)">
<path d="M3.6699 5.5599C5.5899 6.3499 8.8599 7.2599 11.9199 8.1199C14.6799 8.8999 16.6399 9.9199 16.6399 12.3999C16.6399 13.5299 16.5099 16.9199 16.4599 20.9299C16.8344 20.829 17.2231 20.7919 17.6099 20.8199V20.6799C17.6099 16.3599 17.4299 12.6799 17.4399 11.4399C17.4399 8.9099 19.2499 9.2299 22.0999 8.4399C23.3999 8.0799 29.3299 6.7499 31.3099 6.3299C32.9699 5.9799 32.3099 5.2699 31.8099 4.7199C31.8099 4.8199 31.6599 4.9199 31.4199 4.9899C29.9099 5.4399 20.7099 7.2299 18.4799 7.8499C16.9099 8.2899 14.8899 7.4799 12.4799 6.4999C10.0699 5.5199 3.9499 4.0799 2.7499 3.6299C2.53564 3.55347 2.34098 3.43052 2.1799 3.2699L1.8999 3.4299H2.0899C2.6099 3.4199 1.9199 4.8499 3.6699 5.5599Z" fill="#F5F8FA"/>
<path d="M0.0201079 8.95998C0.110108 11.51 0.370109 17.96 0.130109 20.9C-0.0817809 22.4394 0.27366 24.0034 1.13011 25.3C1.29178 25.0885 1.49674 24.914 1.73127 24.7881C1.96581 24.6622 2.22452 24.5879 2.49011 24.57C6.24011 23.9 12.3701 22.18 14.8301 21.43C15.4901 21.23 15.9901 21.05 16.4601 20.93C16.4601 16.93 16.6401 13.53 16.6401 12.4C16.6401 9.91999 14.6401 8.89998 11.9201 8.11998C8.86011 7.21998 5.61011 6.34998 3.67011 5.55998C1.92011 4.84998 2.60011 3.41998 2.12011 3.42998H1.93011C0.300108 4.51998 -0.0698921 6.58998 0.0201079 8.95998Z" fill="#ADD3E0"/>
<path d="M32.21 25.8899C32.6676 25.997 33.0993 26.1942 33.48 26.4699C33.8401 25.3642 33.936 24.1894 33.76 23.0399C33.64 20.5999 33.82 12.9399 34 9.42991C34.14 6.51991 33.17 5.16991 31.83 4.52991C31.8556 4.59412 31.8556 4.6657 31.83 4.72991C32.34 5.27991 32.99 5.98991 31.33 6.33991C29.33 6.75991 23.42 8.08991 22.12 8.44991C19.27 9.22991 17.46 8.90991 17.46 11.4499C17.46 12.6499 17.6 16.3699 17.64 20.6899V20.8299C18.2121 20.8947 18.766 21.0714 19.27 21.3499C20.66 22.0299 30.18 25.4199 32.21 25.8899Z" fill="#C1E1EA"/>
<path d="M12.52 6.50992C14.93 7.50992 16.95 8.29992 18.52 7.85992C20.75 7.23992 29.95 5.44992 31.46 4.99992C31.7 4.92992 31.81 4.82992 31.85 4.72992L31.61 4.39992C31.4185 4.32165 31.2212 4.25813 31.02 4.20992C28.46 3.54992 22.58 1.70992 20.08 0.819921C17.9339 0.189607 15.6577 0.148159 13.49 0.69992C11.15 1.21992 6.41001 2.40992 4.04001 2.69992C3.41634 2.77109 2.81209 2.96119 2.26001 3.25992C2.4186 3.42363 2.61403 3.54706 2.83001 3.61992C3.99001 4.08992 10.1 5.52992 12.52 6.50992Z" fill="#D2ECF3"/>
<path opacity="0.5" d="M17.6101 20.8199C17.2101 20.7915 16.8081 20.8287 16.4201 20.9299V21.4299C16.3701 26.1399 16.6201 30.0699 16.5501 30.7099C16.5165 30.9304 16.4345 31.1407 16.3101 31.3257C16.1856 31.5107 16.0217 31.6658 15.8301 31.7799C16.636 31.8951 17.4542 31.8951 18.2601 31.7799C17.8109 31.3586 17.5362 30.7841 17.4901 30.1699C17.4501 29.4699 17.6901 25.5699 17.6101 20.8199Z" fill="#CFE1EA"/>
<path d="M16.6099 30.7099C16.6799 30.0699 16.4299 26.1399 16.4799 21.4299V20.9299C16.0099 21.0499 15.4799 21.2299 14.8499 21.4299C12.3899 22.1799 6.2599 23.8999 2.5099 24.5599C2.24411 24.5815 1.98579 24.6585 1.75156 24.786C1.51732 24.9134 1.31238 25.0885 1.1499 25.2999C1.69302 26.0476 2.4392 26.6237 3.2999 26.9599C5.3799 27.7899 10.0699 29.4499 13.0399 30.9599C13.932 31.3991 14.8924 31.6832 15.8799 31.7999C16.0772 31.6866 16.2457 31.5293 16.3723 31.3402C16.4989 31.1512 16.5802 30.9355 16.6099 30.7099ZM31.1099 28.0899C31.6084 28.0253 32.085 27.8452 32.5016 27.5639C32.9183 27.2827 33.2635 26.9081 33.5099 26.4699C33.1293 26.1942 32.6975 25.9971 32.2399 25.8899C30.2399 25.4199 20.6899 22.0299 19.3199 21.3399C18.7905 21.0538 18.209 20.8769 17.6099 20.8199C17.6099 25.5699 17.4099 29.4699 17.4799 30.1299C17.526 30.7441 17.8008 31.3186 18.2499 31.7399C18.7452 31.6594 19.231 31.5288 19.6999 31.3499C21.7599 30.5799 27.9399 28.8599 31.0799 28.0899H31.1099Z" fill="#9BC2D4"/>
<path d="M6.60997 16.7799C2.69997 20.0999 1.28997 26.4999 1.39997 23.5999C1.49997 21.2099 1.39997 14.1099 1.39997 11.1599C1.39997 8.6699 1.80997 6.5299 5.11997 8.0699C7.60997 9.2199 12.29 10.2199 14.47 11.6599C15.89 12.6099 12.01 12.1599 6.60997 16.7799Z" fill="#C1E1EA"/>
<path d="M29.1799 13.5199C31.8299 15.3199 32.7399 19.1099 32.6699 17.3099C32.6099 15.8099 32.6699 12.3699 32.6699 10.5299C32.6699 8.9699 32.8599 7.6499 30.6699 8.2799C28.7899 8.8199 25.5399 9.1299 24.1799 10.0499C23.3099 10.6399 25.6099 11.0999 29.1799 13.5199Z" fill="#D2ECF3"/>
<path d="M24.5132 24.832C24.381 24.8683 24.3142 24.8179 24.3128 24.6808L24.3025 23.6524C24.2964 23.0354 24.4103 22.4955 24.6443 22.0326C24.8784 21.5697 25.2245 21.0485 25.6828 20.4691C26.1018 19.9416 26.4154 19.4775 26.6236 19.0767C26.8448 18.6586 26.9527 18.1821 26.9474 17.6474C26.9412 17.0304 26.8041 16.5799 26.5361 16.296C26.2679 15.9984 25.9157 15.9094 25.4793 16.0291C25.0033 16.1597 24.6283 16.455 24.3545 16.9151C24.0805 17.3615 23.9466 17.8932 23.9528 18.5102L23.9581 19.0449C23.9595 19.182 23.8941 19.2687 23.7618 19.305L22.2536 19.6363C22.1213 19.6725 22.0545 19.6221 22.0532 19.485L22.0486 19.0325C22.0371 17.8808 22.3452 16.8683 22.9729 15.9949C23.6137 15.1042 24.4565 14.5155 25.5011 14.2289C26.506 13.9532 27.3161 14.0747 27.9312 14.5934C28.5462 15.0984 28.8594 15.9199 28.8707 17.0579C28.8768 17.6612 28.8026 18.2039 28.6484 18.6862C28.4941 19.1685 28.3059 19.5776 28.0838 19.9135C27.875 20.2458 27.6004 20.6304 27.26 21.0675C26.8934 21.5256 26.6254 21.9084 26.4561 22.2161C26.2868 22.5238 26.204 22.8627 26.2077 23.2329L26.2169 24.1584C26.2183 24.2955 26.1529 24.3822 26.0206 24.4185L24.5132 24.832ZM25.3293 28.8771C24.9591 28.9786 24.6537 28.9387 24.4132 28.7572C24.1728 28.5757 24.0506 28.293 24.0468 27.9091C24.0429 27.5252 24.1588 27.1772 24.3943 26.8651C24.6299 26.553 24.9328 26.3461 25.303 26.2446C25.6733 26.143 25.9786 26.183 26.2191 26.3645C26.4596 26.546 26.5818 26.8287 26.5856 27.2126C26.5894 27.5965 26.467 27.9463 26.2182 28.262C25.9826 28.5741 25.6864 28.7791 25.3293 28.8771Z" fill="#7B7C7F"/>
<path d="M12.3999 17.38C14.3299 18.22 17.6099 19.07 20.6099 19.94C23.3699 20.72 25.3399 21.74 25.3399 24.21C25.3399 25.34 25.1999 28.73 25.1599 32.75C25.5457 32.6365 25.9492 32.5958 26.3499 32.63V32.5C26.3499 28.18 26.1699 24.45 26.1699 23.26C26.1699 20.73 27.9899 21.05 30.8399 20.26C32.1399 19.9 38.0699 18.58 40.0499 18.16C41.7099 17.81 41.0499 17.1 40.5399 16.54C40.5399 16.65 40.3999 16.74 40.1599 16.81C38.6499 17.27 29.4399 19.05 27.2199 19.67C25.6499 20.11 23.6299 19.31 21.2199 18.32C18.8099 17.33 12.6899 15.91 11.4799 15.46C11.2644 15.3812 11.0695 15.2547 10.9099 15.09L10.6399 15.25H10.8299C11.3299 15.22 10.6599 16.67 12.3999 17.38Z" fill="#F5F8FA"/>
<path d="M8.7501 20.77C8.8501 23.33 9.11011 29.77 8.87011 32.71C8.65384 34.2528 9.00953 35.8214 9.87011 37.12C10.0313 36.9071 10.2359 36.7311 10.4704 36.6035C10.7049 36.4759 10.9639 36.3997 11.2301 36.38C14.9801 35.71 21.1101 34 23.6101 33.22C24.2701 33.03 24.7701 32.85 25.2401 32.73C25.2401 28.73 25.4201 25.32 25.4201 24.2C25.4201 21.72 23.4201 20.7 20.6901 19.92C17.6901 19.05 14.3701 18.15 12.4401 17.36C10.6601 16.67 11.3301 15.22 10.8601 15.22H10.6701C9.0401 16.33 8.6601 18.41 8.7501 20.77Z" fill="#ADD3E0"/>
<path d="M40.95 37.7C41.4046 37.8157 41.8347 38.0122 42.22 38.28C42.582 37.1745 42.6745 35.9985 42.49 34.85C42.38 32.42 42.5499 24.75 42.7299 21.25C42.8799 18.34 41.91 16.98 40.57 16.34C40.585 16.3712 40.5928 16.4053 40.5928 16.44C40.5928 16.4746 40.585 16.5088 40.57 16.54C41.09 17.1 41.74 17.81 40.08 18.16C38.08 18.58 32.1699 19.9 30.8699 20.26C28.0199 21.05 26.21 20.73 26.2 23.26C26.2 24.45 26.34 28.18 26.38 32.5V32.63C26.9566 32.6952 27.5142 32.8754 28.02 33.16C29.4 33.85 38.91 37.22 40.95 37.7Z" fill="#C1E1EA"/>
<path d="M21.2499 18.3199C23.6699 19.3199 25.6899 20.1099 27.2499 19.6699C29.4699 19.0499 38.6799 17.2699 40.1899 16.8099C40.4299 16.7399 40.5399 16.6499 40.5699 16.5399C40.4688 16.4368 40.3752 16.3265 40.2899 16.2099C40.0934 16.1361 39.8931 16.0727 39.6899 16.0199C37.1399 15.3699 31.2599 13.5299 28.7599 12.6299C26.6129 12.0029 24.3367 11.9649 22.1699 12.5199C19.8299 13.0399 15.0899 14.2199 12.7199 14.5199C12.094 14.5889 11.4866 14.7755 10.9299 15.0699C11.0924 15.2312 11.2864 15.3572 11.4999 15.4399C12.7199 15.9099 18.8399 17.3399 21.2499 18.3199Z" fill="#D2ECF3"/>
<path opacity="0.5" d="M26.3901 32.6299C25.9895 32.5993 25.5866 32.6399 25.2001 32.7499V33.2199C25.2001 37.9399 25.3901 41.8599 25.3301 42.4999C25.3022 42.7248 25.2227 42.9402 25.0978 43.1293C24.9729 43.3183 24.806 43.476 24.6101 43.5899C25.4127 43.7052 26.2276 43.7052 27.0301 43.5899C26.5793 43.1697 26.3043 42.5945 26.2601 41.9799C26.1901 41.2899 26.4301 37.3899 26.3901 32.6299Z" fill="#CFE1EA"/>
<path d="M25.3201 42.52C25.3801 41.88 25.1401 37.96 25.1901 33.24V32.75C24.7201 32.86 24.1901 33.04 23.5601 33.24C21.0901 33.99 14.9701 35.71 11.2201 36.38C10.9539 36.3997 10.6949 36.4759 10.4604 36.6035C10.2259 36.7311 10.0213 36.9072 9.86011 37.12C10.4038 37.8647 11.1501 38.4374 12.0101 38.77C14.0901 39.6 18.7801 41.27 21.7501 42.77C22.6422 43.2092 23.6026 43.4932 24.5901 43.61C24.7879 43.4973 24.9568 43.3401 25.0834 43.151C25.2101 42.9618 25.2911 42.7458 25.3201 42.52V42.52ZM39.8201 39.9C40.3186 39.8354 40.7952 39.6552 41.2118 39.374C41.6285 39.0928 41.9737 38.7182 42.2201 38.28C41.8349 38.0122 41.4047 37.8158 40.9501 37.7C38.9501 37.24 29.4001 33.85 28.0301 33.16C27.5244 32.8755 26.9667 32.6953 26.3901 32.63C26.3901 37.39 26.1901 41.29 26.2501 41.94C26.2943 42.5547 26.5693 43.1298 27.0201 43.55C27.5168 43.4904 28.0061 43.3798 28.4801 43.22C30.4901 42.4 36.6701 40.67 39.8201 39.9Z" fill="#9BC2D4"/>
<path d="M15.31 28.59C11.4 31.91 9.99003 38.31 10.11 35.41C10.2 33.02 10.11 25.93 10.11 22.98C10.11 20.48 10.53 18.34 13.84 19.88C16.38 21.06 21.04 21.99 23.22 23.47C24.61 24.42 20.75 23.98 15.31 28.59Z" fill="#C1E1EA"/>
<path d="M37.9099 25.3399C40.5599 27.1299 41.4799 30.9299 41.4099 29.1199C41.3499 27.6299 41.4099 24.1799 41.4099 22.3399C41.4099 20.7899 41.5999 19.4699 39.4099 20.0999C37.5299 20.6399 34.2899 20.9399 32.9299 21.8599C32.0499 22.4599 34.3299 22.9199 37.9099 25.3399Z" fill="#D2ECF3"/>
<path d="M33.2532 34.6421C33.121 34.6784 33.0542 34.6279 33.0528 34.4908L33.0425 33.4625C33.0363 32.8455 33.1503 32.3056 33.3843 31.8426C33.6184 31.3797 33.9645 30.8585 34.4228 30.2791C34.8418 29.7517 35.1554 29.2876 35.3636 28.8868C35.5848 28.4686 35.6927 27.9922 35.6874 27.4575C35.6812 26.8405 35.5441 26.39 35.2761 26.1061C35.0079 25.8084 34.6557 25.7194 34.2193 25.8392C33.7433 25.9697 33.3683 26.2651 33.0945 26.7252C32.8205 27.1716 32.6866 27.7032 32.6928 28.3202L32.6981 28.855C32.6995 28.9921 32.634 29.0788 32.5018 29.115L30.9936 29.4463C30.8613 29.4826 30.7945 29.4322 30.7932 29.2951L30.7886 28.8426C30.7771 27.6909 31.0852 26.6783 31.7129 25.8049C32.3537 24.9142 33.1964 24.3256 34.2411 24.039C35.246 23.7633 36.0561 23.8848 36.6712 24.4035C37.2862 24.9084 37.5993 25.7299 37.6107 26.8679C37.6168 27.4712 37.5426 28.014 37.3883 28.4963C37.2341 28.9786 37.0459 29.3877 36.8238 29.7235C36.615 30.0558 36.3404 30.4405 36 30.8776C35.6333 31.3356 35.3654 31.7185 35.1961 32.0262C35.0268 32.3338 34.944 32.6728 34.9477 33.043L34.9569 33.9685C34.9583 34.1056 34.8929 34.1923 34.7606 34.2285L33.2532 34.6421ZM34.0693 38.6871C33.6991 38.7887 33.3937 38.7487 33.1532 38.5672C32.9127 38.3857 32.7906 38.103 32.7867 37.7191C32.7829 37.3352 32.8988 36.9872 33.1343 36.6751C33.3699 36.363 33.6728 36.1562 34.043 36.0546C34.4132 35.953 34.7186 35.993 34.9591 36.1745C35.1996 36.356 35.3217 36.6387 35.3256 37.0226C35.3294 37.4065 35.207 37.7564 34.9582 38.0721C34.7226 38.3842 34.4264 38.5892 34.0693 38.6871Z" fill="#7B7C7F"/>
</g>
<defs>
<clipPath id="clip0_2189_11522">
<rect width="42.74" height="43.36" fill="white" transform="translate(0 0.319946)"/>
</clipPath>
</defs>
</svg>
