<svg width="39" height="38" viewBox="0 0 39 38" fill="none" xmlns="http://www.w3.org/2000/svg">
<g clip-path="url(#clip0_2165_11185)">
<path d="M19.75 31.3344C12.9379 31.3344 7.41562 25.8121 7.41562 19C7.41562 12.1879 12.9379 6.66559 19.75 6.66559C26.5622 6.66559 32.0845 12.1879 32.0845 19C32.0845 25.8121 26.5622 31.3344 19.75 31.3344Z" fill="#FFC114"/>
<path d="M11.0287 10.2787C6.23197 15.0754 6.23197 22.8623 11.0287 27.7213C15.8254 32.518 23.6123 32.518 28.4713 27.7213" fill="#FCA12A"/>
<path d="M22.7401 5.29508L19.7499 0L16.7598 5.29508H22.7401Z" fill="#FFC114"/>
<path d="M19.5008 5.29508L19.75 0L16.7598 5.29508H19.5008Z" fill="#FCA12A"/>
<path d="M16.7598 32.7049L19.7499 38L22.7401 32.7049H16.7598Z" fill="#FFC114"/>
<path d="M19.9991 32.7049L19.7499 38L22.7401 32.7049H19.9991Z" fill="#FCA12A"/>
<path d="M6.04504 16.0098L0.749962 19L6.04504 21.9902V16.0098Z" fill="#FFC114"/>
<path d="M6.04504 19.2492L0.749962 19L6.04504 21.9902V19.2492Z" fill="#FCA12A"/>
<path d="M33.4549 21.9902L38.75 19L33.4549 16.0098V21.9902Z" fill="#FFC114"/>
<path d="M33.4549 18.7508L38.75 19L33.4549 16.0098V18.7508Z" fill="#FCA12A"/>
<path d="M11.9631 6.97703L6.1074 5.35736L7.72707 11.2131L11.9631 6.97703Z" fill="#FFC114"/>
<path d="M9.6582 9.28195L6.10738 5.35736L7.72706 11.2131L9.6582 9.28195Z" fill="#FCA12A"/>
<path d="M27.5368 31.0229L33.3926 32.6426L31.7729 26.7869L27.5368 31.0229Z" fill="#FFC114"/>
<path d="M29.8418 28.718L33.3926 32.6426L31.7729 26.7869L29.8418 28.718Z" fill="#FCA12A"/>
<path d="M7.72707 26.7869L6.1074 32.6426L11.9631 31.0229L7.72707 26.7869Z" fill="#FFC114"/>
<path d="M10.032 29.0918L6.1074 32.6426L11.9631 31.0229L10.032 29.0918Z" fill="#FCA12A"/>
<path d="M31.7729 11.2131L33.3926 5.35736L27.5368 6.97703L31.7729 11.2131Z" fill="#FFC114"/>
<path d="M29.468 8.90818L33.3926 5.35736L27.5368 6.97703L29.468 8.90818Z" fill="#FCA12A"/>
</g>
<defs>
<clipPath id="clip0_2165_11185">
<rect width="38" height="38" fill="white" transform="matrix(-1 0 0 1 38.75 0)"/>
</clipPath>
</defs>
</svg>
