<svg width="267" height="267" viewBox="0 0 267 267" fill="none" xmlns="http://www.w3.org/2000/svg">
<g clip-path="url(#clip0_2188_11423)">
<path d="M133.497 266.184C207.226 266.184 266.995 206.597 266.995 133.092C266.995 59.5873 207.226 0 133.497 0C59.7688 0 0 59.5873 0 133.092C0 206.597 59.7688 266.184 133.497 266.184Z" fill="#E4E7ED"/>
<path d="M14.6013 195.016C24.7113 214.518 39.5029 231.224 57.6584 243.645C75.8138 256.066 96.7692 263.818 118.658 266.208C140.546 268.599 162.688 265.555 183.11 257.347C203.532 249.139 221.601 236.022 235.706 219.165L14.6013 195.016Z" fill="#E4F1DD"/>
<path d="M164.911 183.085H181.995V257.132C176.428 259.291 170.722 261.074 164.916 262.472L164.911 183.085Z" fill="#FEFEFE"/>
<path d="M55.6986 182.669H61.5339V208.034C60.8769 208.975 57.6542 209.178 55.683 208.601L55.6986 182.669Z" fill="#FEFEFE"/>
<path d="M164.911 183.085H181.989V231.008L164.911 204.254V183.085Z" fill="#B1D5EA"/>
<path d="M179.945 183.085H181.994V257.132C181.322 257.398 180.639 257.652 179.955 257.907L179.945 183.085Z" fill="#B1D5EA"/>
<path d="M40.4612 143.989L84.3485 136.253L68.6834 185.788L30.4176 176.653L40.4612 143.989Z" fill="#FEFEFE"/>
<path d="M41.0608 145.528L38.8759 153.206L75.3947 149.671L78.7426 139.414L41.0608 145.528Z" fill="#8597B1"/>
<path d="M38.5526 153.898L36.67 160.568L72.1511 160.495L75.1288 150.638L38.5526 153.898Z" fill="#8597B1"/>
<path d="M36.4771 161.26L34.4069 168.262L68.4643 172.38L71.7809 161.644L36.4771 161.26Z" fill="#8597B1"/>
<path d="M34.0679 169.235L32.1593 175.489L65.179 182.918L68.0107 173.545L34.0679 169.235Z" fill="#8597B1"/>
<path d="M42.1976 149.177L43.0789 148.403L43.9707 145.055L44.2314 145.013L43.3084 148.413L43.8455 148.897L42.9277 149.838L41.1338 156.529L41.6814 157.137L40.7532 157.963L38.9645 164.644L39.5329 165.377L38.5786 166.094L36.7691 172.863L37.2697 173.706L36.378 174.324L35.9139 176.056L35.7001 175.998L36.1746 174.215L35.7001 173.534L36.5292 172.889L38.3752 165.991L37.9059 165.32L38.7298 164.66L40.5446 157.875L40.07 157.23L40.9044 156.529L42.7139 149.76L42.1976 149.177Z" fill="#ECF0F1"/>
<path d="M48.1789 148.252L49.1332 147.28L49.9989 144.072L50.2596 144.036L49.3783 147.285L49.9624 147.81L48.9612 148.839L46.9795 156.128L47.5688 156.809L46.5519 157.693L44.5808 164.966L45.1544 165.725L44.1532 166.547L42.2081 173.716L42.7556 174.652L41.7752 175.302L41.2068 177.402L40.9722 177.335L41.5562 175.182L41.0869 174.366L41.9421 173.737L43.9289 166.438L43.4752 165.658L44.3252 164.982L46.3277 157.594L45.8427 156.981L46.7292 156.128L48.7317 148.756L48.1789 148.252Z" fill="#ECF0F1"/>
<path d="M54.1812 147.248L55.2085 146.188L56.0115 143.105L56.2879 143.058L55.4796 146.198L56.0741 146.817L55.0364 147.878L52.8931 156.024L53.5345 156.596L52.4916 157.537L50.4683 165.231L51.1462 166.074L50.025 166.937L47.9548 174.792L48.5388 175.671L47.5011 176.513L46.844 179.024L46.5885 178.946L47.2664 176.383L46.6876 175.421L47.6732 174.823L49.7799 166.817L49.1854 166.053L50.1919 165.247L52.2413 157.428L51.6833 156.71L52.6167 156.024L54.7861 147.784L54.1812 147.248Z" fill="#ECF0F1"/>
<path d="M61.4662 146.037L62.5769 144.904L63.4269 141.899L63.745 141.847L62.8585 144.914L63.5104 145.522L62.337 146.718L59.86 155.307L60.5275 156.227L59.3334 157.121L56.9346 165.434L57.5708 166.36L56.4027 167.269L53.9622 175.692L54.6088 176.617L53.4355 177.537L52.7628 179.861L52.4968 179.788L53.1852 177.402L52.7106 176.316L53.6701 175.723L56.1471 167.139L55.6309 166.375L56.6373 165.45L59.0778 157.007L58.5042 156.305L59.5732 155.312L62.0815 146.619L61.4662 146.037Z" fill="#ECF0F1"/>
<path d="M69.4812 144.743L70.6546 143.698L71.5776 140.578L71.9009 140.531L70.957 143.713L71.6506 144.368L70.4355 145.496L67.6717 154.782L68.3601 155.821L67.0929 156.747L64.3864 165.855L65.0591 166.812L63.7972 167.831L61.1689 176.7L61.8156 177.766L60.5745 178.691L59.7662 181.426L59.4794 181.343L60.3137 178.541L59.7662 177.433L60.8508 176.731L63.5312 167.696L62.9785 166.812L64.0736 165.876L66.8165 156.622L66.342 155.821L67.3641 154.787L70.1592 145.387L69.4812 144.743Z" fill="#ECF0F1"/>
<path d="M39.7989 149.411L77.538 143.037L77.3294 143.677L39.7155 149.702L39.7989 149.411Z" fill="#ECF0F1"/>
<path d="M37.5096 157.215L73.7729 155.182L73.5591 155.821L37.4261 157.506L37.5096 157.215Z" fill="#ECF0F1"/>
<path d="M35.2778 165.06L70.3104 166.75L70.081 167.509L35.1943 165.335L35.2778 165.06Z" fill="#ECF0F1"/>
<path d="M32.9363 172.895L66.5714 178.296L66.3576 178.936L32.8529 173.191L32.9363 172.895Z" fill="#ECF0F1"/>
<path d="M119.835 70.2008L245.27 47.6116L200.481 192.188L91.1328 165.528L119.835 70.2008Z" fill="#FEFEFE"/>
<path d="M244.858 47.4972L251.142 52.9248L206.118 201.905L94.3347 170.753L91.1328 165.528L200.481 192.188L244.858 47.4972Z" fill="#C6CBD6"/>
<path d="M59.0726 24.8768C61.9766 25.293 64.821 26.0503 67.5465 27.1331C72.2906 24.8877 76.4091 21.5154 79.5404 17.3124C77.4547 22.1222 76.5845 27.3687 77.0061 32.5919C79.3026 34.4061 81.3815 36.4786 83.2012 38.7682C88.4507 39.1937 93.7246 38.326 98.5586 36.2416C94.3411 39.3616 90.9582 43.4681 88.708 48.199C89.7862 50.9245 90.5389 53.7671 90.9503 56.668C95.2741 59.6425 100.265 61.5118 105.484 62.1113C100.264 62.7149 95.2715 64.5857 90.9451 67.5597C90.5233 70.4541 89.7638 73.2894 88.6819 76.008C90.9348 80.7387 94.3194 84.8449 98.5377 87.9654C93.7128 85.8815 88.4474 85.0138 83.2064 85.4388C81.3887 87.7284 79.3116 89.8009 77.0165 91.6151C76.5928 96.8383 77.4631 102.085 79.5509 106.895C76.42 102.691 72.3014 99.3187 67.557 97.0739C64.8273 98.156 61.9797 98.9151 59.0726 99.3354C56.0921 103.648 54.2174 108.623 53.6127 113.825C53.0073 108.62 51.1308 103.644 48.1477 99.3302C45.2441 98.9091 42.4 98.1501 39.6737 97.0687C34.9303 99.3175 30.8122 102.691 27.6798 106.895C29.7692 102.086 30.6413 96.8388 30.2194 91.6151C27.9215 89.8024 25.8425 87.7297 24.0243 85.4388C18.7851 85.0163 13.5221 85.884 8.69816 87.9654C12.912 84.8415 16.2941 80.736 18.5488 76.008C17.4627 73.2872 16.703 70.4479 16.2856 67.5493C11.9578 64.5743 6.96377 62.7034 1.7417 62.1009C6.96052 61.502 11.9525 59.6366 16.2804 56.668C16.7028 53.7722 17.4623 50.9352 18.5436 48.2146C16.2879 43.4857 12.9039 39.38 8.68774 36.2572C13.5127 38.3411 18.7781 39.2088 24.0191 38.7838C25.8357 36.4885 27.9128 34.4107 30.209 32.5919C30.6379 27.3668 29.7674 22.1168 27.6746 17.3072C30.8079 21.5096 34.9258 24.8832 39.6685 27.1331C42.3958 26.0492 45.2419 25.2901 48.1477 24.8716C51.1297 20.5654 53.0063 15.5955 53.6127 10.3978C54.2159 15.6027 56.0926 20.5802 59.0778 24.8924L59.0726 24.8768Z" fill="#FCD34E"/>
<path d="M53.6023 92.2337C70.2949 92.2337 83.827 78.7428 83.827 62.1009C83.827 45.4589 70.2949 31.968 53.6023 31.968C36.9097 31.968 23.3777 45.4589 23.3777 62.1009C23.3777 78.7428 36.9097 92.2337 53.6023 92.2337Z" fill="#FFE356"/>
<path d="M122.859 74.6822L116.32 97.1051L225.673 86.7905L235.701 56.8448L122.859 74.6822Z" fill="#8597B1"/>
<path d="M115.355 99.1171L109.708 118.577L215.958 118.369L224.87 89.5979L115.355 99.1171Z" fill="#8597B1"/>
<path d="M109.134 120.594L102.939 141.041L204.924 153.056L214.847 121.717L109.134 120.594Z" fill="#8597B1"/>
<path d="M101.933 143.88L96.2068 162.128L195.089 183.818L203.552 156.461L101.933 143.88Z" fill="#8597B1"/>
<path d="M126.27 85.3348L128.903 83.0837L131.578 73.3045L132.361 73.1797L129.591 83.0993L131.208 84.5134L128.444 87.274L123.094 106.791L124.716 108.579L121.941 110.991L116.591 130.482L118.286 132.614L115.428 134.714L110.005 154.475L111.517 156.924L108.837 158.738L107.45 163.791L106.803 163.615L108.227 158.416L106.798 156.419L109.29 154.543L114.813 134.418L113.415 132.458L115.882 130.524L121.316 110.731L119.902 108.844L122.39 106.801L127.813 87.0452L126.27 85.3348Z" fill="#ECF0F1"/>
<path d="M144.167 82.6418L147.024 79.7876L149.621 70.4399L150.409 70.3307L147.775 79.8135L149.522 81.3524L146.508 84.3574L140.589 105.621L142.347 107.617L139.312 110.196L133.398 131.428L135.114 133.627L132.115 136.034L126.291 156.95L127.933 159.695L124.997 161.592L123.292 167.717L122.588 167.524L124.335 161.244L122.938 158.863L125.514 157.022L131.448 135.717L130.097 133.445L132.632 131.47L138.634 109.91L137.174 108.127L139.828 105.626L145.82 84.1026L144.167 82.6418Z" fill="#ECF0F1"/>
<path d="M162.158 79.6992L165.229 76.6162L167.623 67.6065L168.457 67.4766L166.043 76.6422L167.81 78.4462L164.718 81.5552L158.288 105.319L160.213 106.993L157.084 109.733L151.04 132.198L153.058 134.657L149.694 137.168L143.504 160.111L145.262 162.658L142.149 165.128L140.177 172.448L139.411 172.24L141.429 164.743L139.719 161.946L142.66 160.189L148.97 136.825L147.186 134.6L150.205 132.239L156.343 109.426L154.669 107.331L157.464 105.33L163.967 81.2796L162.158 79.6992Z" fill="#ECF0F1"/>
<path d="M183.96 76.1743L187.287 72.8626L189.837 64.0972L190.787 63.9465L188.137 72.8938L190.083 74.677L186.578 78.1655L179.152 103.229L181.16 105.922L177.578 108.522L170.386 132.79L172.295 135.489L168.796 138.135L161.501 162.736L163.43 165.424L159.91 168.122L157.902 174.896L157.104 174.673L159.17 167.717L157.735 164.54L160.619 162.819L168.05 137.766L166.486 135.541L169.51 132.837L176.816 108.189L175.101 106.136L178.287 103.24L185.801 77.8691L183.96 76.1743Z" fill="#ECF0F1"/>
<path d="M207.964 72.3947L211.468 69.3533L214.242 60.2397L215.212 60.0993L212.386 69.3845L214.456 71.3081L210.822 74.5938L202.546 101.701L204.606 104.727L200.799 107.43L192.706 134.017L194.724 136.809L190.948 139.793L183.063 165.673L185.019 168.782L181.296 171.481L178.866 179.461L178.016 179.222L180.503 171.044L178.871 167.821L182.114 165.762L190.14 139.393L188.482 136.809L191.762 134.074L199.98 107.071L198.557 104.732L201.612 101.706L209.987 74.2819L207.964 72.3947Z" fill="#ECF0F1"/>
<path d="M119.084 86.0158L232.087 67.4246L231.451 69.2806L118.828 86.8685L119.084 86.0158Z" fill="#ECF0F1"/>
<path d="M112.237 108.797L220.803 102.871L220.166 104.732L111.976 109.65L112.237 108.797Z" fill="#ECF0F1"/>
<path d="M105.546 131.683L210.446 136.622L209.753 138.847L105.296 132.51L105.546 131.683Z" fill="#ECF0F1"/>
<path d="M98.5377 154.563L199.245 170.326L198.609 172.182L98.277 155.416L98.5377 154.563Z" fill="#ECF0F1"/>
<path d="M55.6986 184.566L61.5495 185.996V190.171L55.6986 184.566Z" fill="#B1D5EA"/>
<path d="M84.3485 136.253L86.0641 137.729L70.2165 188.434L31.2885 178.073L30.4176 176.653L68.6834 185.788L84.3485 136.253Z" fill="#C6CBD6"/>
</g>
<defs>
<clipPath id="clip0_2188_11423">
<rect width="267" height="267" fill="white"/>
</clipPath>
</defs>
</svg>
